<svg width="240" height="290" xmlns="http://www.w3.org/2000/svg">
 <!-- Created with SVG Editor - http://github.com/mzalive/SVG Editor/ -->

 <g>
  <title>background</title>
  <g display="none" overflow="visible" y="0" x="0" height="100%" width="100%" id="canvasGrid">
   <rect fill="url(#gridpattern)" stroke-width="0" y="0" x="0" height="100%" width="100%"/>
  </g>
 </g>
 <g>
  <title>Layer 1</title>
  <g transform="matrix(0.07384686556979236,0,0,0.07384686556979236,0,0) " id="svg_20"/>
  <g transform="matrix(0.07384686556979236,0,0,0.07384686556979236,0,0) " id="svg_21"/>
  <g transform="matrix(0.07384686556979236,0,0,0.07384686556979236,0,0) " id="svg_22"/>
  <g transform="matrix(0.07384686556979236,0,0,0.07384686556979236,0,0) " id="svg_23"/>
  <g transform="matrix(0.07384686556979236,0,0,0.07384686556979236,0,0) " id="svg_24"/>
  <g transform="matrix(0.07384686556979236,0,0,0.07384686556979236,0,0) " id="svg_25"/>
  <g transform="matrix(0.07384686556979236,0,0,0.07384686556979236,0,0) " id="svg_26"/>
  <g transform="matrix(0.07384686556979236,0,0,0.07384686556979236,0,0) " id="svg_27"/>
  <g transform="matrix(0.07384686556979236,0,0,0.07384686556979236,0,0) " id="svg_28"/>
  <g transform="matrix(0.07384686556979236,0,0,0.07384686556979236,0,0) " id="svg_29"/>
  <g transform="matrix(0.07384686556979236,0,0,0.07384686556979236,0,0) " id="svg_30"/>
  <g transform="matrix(0.07384686556979236,0,0,0.07384686556979236,0,0) " id="svg_31"/>
  <g transform="matrix(0.07384686556979236,0,0,0.07384686556979236,0,0) " id="svg_32"/>
  <g transform="matrix(0.07384686556979236,0,0,0.07384686556979236,0,0) " id="svg_33"/>
  <g transform="matrix(0.07384686556979236,0,0,0.07384686556979236,0,0) " id="svg_34"/>
  <rect rx="2" id="svg_42" height="254" width="6" y="14.65" x="55.5" stroke-width="18.5" stroke="#f5226f" fill="#fff"/>
  <rect rx="2" id="svg_37" height="254" width="6" y="18.65" x="176.5" stroke-width="18.5" stroke="#f5226f" fill="#fff"/>
  <rect stroke="#f5226f" transform="rotate(30 36.37915802001954,52.73493957519531) " rx="1" id="svg_43" height="78.483337" width="4" y="13.493269" x="34.379161" fill-opacity="null" stroke-width="18.5" fill="none"/>
  <rect stroke="#f5226f" transform="rotate(30 202.37916564941415,234.7349395751953) " rx="1" id="svg_41" height="78.483337" width="4" y="195.493269" x="200.379161" fill-opacity="null" stroke-width="18.5" fill="none"/>
  <rect stroke="#f5226f" transform="rotate(150 80.52033233642578,52.56087112426757) " rx="1" id="svg_44" height="78.081411" width="4" y="13.520168" x="78.520333" fill-opacity="null" stroke-width="18.5" fill="none"/>
  <rect stroke="#f5226f" transform="rotate(150 157.5203399658203,234.56088256835935) " rx="1" id="svg_40" height="78.081411" width="4" y="195.520168" x="155.520333" fill-opacity="null" stroke-width="18.5" fill="none"/>
 </g>
</svg>