<svg xmlns="http://www.w3.org/2000/svg" viewBox="0 0 1177.34155 992.9552">
  <defs>
    <style>
      .a, .b {
        fill: none;
        stroke: #f5226f;
        stroke-miterlimit: 10;
        stroke-width: 21px;
      }

      .b {
        stroke-linecap: round;
      }
    </style>
  </defs>
  <title>Монтажная область 1</title>
  <path class="a" d="M64.566,967.37634c-13.3941-13.76042-28.29063-58.4456-33.01924-72.7368-.542-1.6382-.95476-2.90944-1.22194-3.73238,0-.00012-14.69463-45.26191-18.76576-97.45753C5.39561,714.42822,23.04582,504.125,147.57925,352.30664c56.4231-68.78528,116.7259-110.265,148.7645-129.49982,7.49875-4.49981,13.44577-7.78607,17.434-9.92218,142.1915-75.95745,301.85684-86.58245,444.54422-42.296a579.92749,579.92749,0,0,1,188.37647,99.28052,571.9433,571.9433,0,0,1,44.03521,38.70337c30.40186,29.60132,55.99182,63.13464,68.67188,80.6861,5.47644,7.58453,8.54919,12.18719,8.54919,12.18719,8.38819,12.54858,18.7699,29.12738,29.58264,49.38678A581.84887,581.84887,0,0,1,1155.60413,614.449a569.38774,569.38774,0,0,1,9.05908,70.0904c4.71106,70.8071,8.64367,106.094-6.57349,130.084-24.07983,37.96229-82.36743,40.0671-144.38385,41.49431-135.77917,3.12471-161.95178-43.356-261.52942-30.70589-81.19012,10.31419-70.27051,43.09907-162,58.2353-109.65085,18.09342-130.88635-26.77562-228-3.17647-44.25909,10.75521-35.1004,18.92089-159.52942,65.64706C127.71926,974.25488,83.37459,986.69928,64.566,967.37634Z"/>
  <path class="a" d="M296.29012,222.7066c62.20017,114.05557,105.90161,136.26971,135.16764,133.30624,24.53915-2.4848,34.75668-21.13528,81.86032-32.52615,15.51062-3.75089,51.75158-12.5148,88.44336.77047,46.59082,16.86945,44.89874,51.54486,84.99591,60.233,9.60363,2.0809,35.207-4.83225,86.022-18.7435,78.7478-21.55829,85.40515-25.05625,92.07764-28.38086,20.87158-10.39933,51.68707-29.83365,81.845-67.495"/>
  <path class="a" d="M147.5779,352.30627c31.22632,19.16546,58.24652,33.8681,78.52469,44.36309,51.4589,26.63263,77.76123,39.97077,105.83243,41.04126,29.24417,1.11524,31.97934-7.97332,68.19775-5.65075,7.48285.47986,20.64185,1.71911,70.22217,14.61529,37.94,9.86847,57.35864,14.24738,70.97748,19.96112,22.10626,9.2746,45.70435,19.48566,65.42114,42.976,11.46381,13.65777,25.87677,30.82928,22.59375,50.07531-3.99279,23.40693-31.8631,36.41529-60.10156,49.59552-19.00659,8.87134-34.98071,13.55591-60.52563,19.87592-64.90143,16.057-118.09192,25.0733-118.092,25.0733-55.22162,9.36054-72.50116,9.72394-90.60737,26.64258-9.295,8.68543-14.7536,19.44238-25.67074,40.95618-23.17182,45.66345-16.81418,55.91961-34.54852,84.99212-21.34626,34.99353-53.31667,52.25287-60.46375,55.93811-69.57056,35.87189-147.58943-3.93023-157.66089-9.25982"/>
  <path class="a" d="M813.69625,820.04974a230.401,230.401,0,0,1,8.87415-53.47913c3.7669-12.95715,14.95214-42.61157,36.84387-75.67267,23.32623-35.22748,35.98657-39.082,44.73633-65.31586,10.36865-31.07946-2.93738-39.071,2.6969-71.96331,5.82885-34.0282,31.87-67.0951,73.93756-106.0774a451.46169,451.46169,0,0,1,78.62048-58.28277"/>
  <line class="b" x1="796.81653" y1="10.5" x2="728.09906" y2="205.35736"/>
  <path class="b" d="M789.65347,34.723a86.46592,86.46592,0,0,1,26.79925,1.34988c6.0871,1.27637,18.96338,4.11367,31.034,13.37256,12.598,9.66342,11.73327,16.66835,21.07666,24.966,7.49231,6.65372,20.58441,13.28229,45.03729,11.80591"/>
  <path class="b" d="M767.53866,100.07554a86.46592,86.46592,0,0,1,26.79925,1.34988c6.0871,1.27639,18.96338,4.11367,31.034,13.37256,12.598,9.66344,11.73328,16.66837,21.07672,24.966,7.49231,6.65372,20.58441,13.28229,45.03729,11.80591"/>
  <path class="b" d="M891.486,151.56988a121.79256,121.79256,0,0,1-10.73577-25.139c-1.3487-4.561-2.01215-7.88382-.9032-11.54681,1.661-5.48659,6.269-8.33544,10.6546-11.25475a257.13177,257.13177,0,0,0,23.09918-17.41194"/>
</svg>
