<svg id="Слой_1" data-name="Слой 1" xmlns="http://www.w3.org/2000/svg" viewBox="0 0 1177.34154 992.9552"><defs><style>.cls-1,.cls-2{fill:none;stroke:#f5226f;stroke-miterlimit:10;stroke-width:21px;}.cls-2{stroke-linecap:round;}</style></defs><title>earth</title><path class="cls-1" d="M104.64706,1089.94116c-15.22714-17.90283-31.63875-68.45324-34.24118-76.46918,0-.00012-14.69463-45.2619-18.76576-97.45751-6.16347-79.02143,11.48674-289.32465,136.02016-441.143,56.42309-68.78528,116.72589-110.26495,148.76449-129.49979,7.49875-4.49981,13.44577-7.7861,17.434-9.92221C496.05026,259.492,655.71564,248.867,798.403,293.15347A579.92754,579.92754,0,0,1,986.77948,392.434a571.94556,571.94556,0,0,1,44.03522,38.70334c30.40185,29.60132,55.99182,63.13464,68.67187,80.68613,5.47644,7.5845,8.5492,12.18716,8.5492,12.18716,8.38818,12.54858,18.76989,29.12738,29.58264,49.38678a581.84919,581.84919,0,0,1,58.06677,163.61639,569.37982,569.37982,0,0,1,9.05908,70.0904c1.36328,20.72827,6.60547,100.04107-6.57348,130.084-37.07959,84.52692-300.366-37.62738-596.22962,17.69409C359.28568,1000.25476,158.37154,1153.10608,104.64706,1089.94116Z" transform="translate(-40.08103 -122.56483)"/><path class="cls-1" d="M336.37114,345.27143C398.57133,459.327,442.27276,481.54113,471.5388,478.57768c24.53917-2.48481,34.75669-21.13528,81.8603-32.52615,15.51061-3.75087,51.7516-12.5148,88.44335.77047,46.59082,16.86946,44.89875,51.54487,84.99594,60.233,9.60363,2.08091,35.207-4.83223,86.02195-18.74349,78.74783-21.5583,85.40512-25.05626,92.07766-28.38085,20.87157-10.39931,51.68709-29.83366,81.845-67.495" transform="translate(-40.08103 -122.56483)"/><path class="cls-1" d="M187.65893,474.8711c31.22631,19.16546,58.24653,33.86812,78.52468,44.36312,51.4589,26.63261,77.76124,39.97078,105.83242,41.04126,29.24417,1.11521,31.97933-7.97332,68.19776-5.65075,7.48286.47985,20.64186,1.71911,70.22217,14.61529,37.94,9.86847,57.35863,14.24738,70.97747,19.96111,22.10628,9.27459,45.70433,19.48567,65.42111,42.976,11.46379,13.6578,25.87677,30.82929,22.59376,50.07534-3.9928,23.40694-31.86309,36.4153-60.10156,49.59552-19.00662,8.87132-34.9807,13.55592-60.52566,19.87591-64.90143,16.057-118.09191,25.0733-118.092,25.07329-55.22161,9.36053-72.50117,9.72394-90.60737,26.64259-9.295,8.6854-14.75359,19.44236-25.67073,40.95618-23.1718,45.66343-16.81418,55.91962-34.54853,84.99215-21.34624,34.99355-53.31667,52.25287-60.46374,55.93809-69.57056,35.87188-147.58943-3.93026-157.66089-9.2598" transform="translate(-40.08103 -122.56483)"/><path class="cls-1" d="M853.77728,942.61456a230.40085,230.40085,0,0,1,8.87415-53.47912c3.7669-12.95716,14.95215-42.61158,36.84387-75.67267,23.32623-35.22748,35.98657-39.082,44.73633-65.31586,10.36865-31.07947-2.93738-39.071,2.6969-71.96332,5.82886-34.02819,31.87-67.09509,73.93756-106.07739a451.45963,451.45963,0,0,1,78.62048-58.28277" transform="translate(-40.08103 -122.56483)"/><line class="cls-2" x1="796.81653" y1="10.5" x2="728.09908" y2="205.35736"/><path class="cls-2" d="M829.7345,157.28785a86.46585,86.46585,0,0,1,26.79925,1.34989c6.08708,1.27637,18.9634,4.11366,31.034,13.37256,12.598,9.66342,11.73328,16.66835,21.07669,24.96595,7.49233,6.65371,20.58443,13.28228,45.03731,11.80591" transform="translate(-40.08103 -122.56483)"/><path class="cls-2" d="M807.61971,222.64037a86.46585,86.46585,0,0,1,26.79925,1.34989c6.08708,1.27638,18.9634,4.11366,31.034,13.37256,12.598,9.66343,11.73328,16.66836,21.07669,24.966,7.49232,6.65371,20.58443,13.28229,45.03731,11.80591" transform="translate(-40.08103 -122.56483)"/><path class="cls-2" d="M931.567,274.13469a121.79392,121.79392,0,0,1-10.73576-25.139c-1.34871-4.561-2.01214-7.88382-.9032-11.54681,1.661-5.48659,6.269-8.33543,10.65459-11.25475a257.13319,257.13319,0,0,0,23.09916-17.41195" transform="translate(-40.08103 -122.56483)"/></svg>