<svg xmlns="http://www.w3.org/2000/svg" viewBox="0 0 485.82292 246.563"><defs><style>.a{fill:none;stroke:#f5226f;stroke-miterlimit:10;stroke-width:10px;}</style></defs><title>gamepad2</title><path class="a" d="M480.82237,123.14866a118.39659,118.39659,0,0,1-205.24878,80.48172h-65.325A118.40326,118.40326,0,1,1,115.652,5H370.17018A118.38818,118.38818,0,0,1,480.82237,123.14866Z" transform="translate(0.00054 0.00001)"/><path class="a" d="M190.9377,123.28706a20.76,20.76,0,0,1-20.76009,20.749H139.05419V175.1706a20.76005,20.76005,0,0,1-41.5201,0V144.036H66.39952a20.75454,20.75454,0,0,1,0-41.50907H97.53407V71.39242a20.76005,20.76005,0,1,1,41.5201-.01854V102.527h31.12344a20.75048,20.75048,0,0,1,20.76009,20.74088Z" transform="translate(0.00054 0.00001)"/><circle class="a" cx="376.38232" cy="71.81092" r="24.70588"/><circle class="a" cx="326.97055" cy="121.22269" r="24.70588"/><circle class="a" cx="376.38232" cy="170.63445" r="24.70588"/><circle class="a" cx="425.79406" cy="121.22269" r="24.70588"/></svg>