<svg xmlns="http://www.w3.org/2000/svg" viewBox="0 0 1177.34155 992.9552">
  <defs>
    <style>
      .a {
        fill: none;
        stroke: #f5226f;
        stroke-miterlimit: 10;
        stroke-width: 23px;
      }
    </style>
  </defs>
  <title>Монтажная область 1 копия</title>
  <g>
    <path class="a" d="M1168.29411,529.28732c.02377,158.60114-128.52855,287.192-287.1297,287.21577A287.17275,287.17275,0,0,1,670.46005,724.497H512.01327c-107.81049,116.336-289.51707,123.2472-405.853,15.43675S-17.087,450.41664,90.72352,334.08069a287.18889,287.18889,0,0,1,191.84429-91.36475H899.90553C1050.90037,252.60372,1168.31136,377.96908,1168.29411,529.28732Z"/>
    <path class="a" d="M465.17443,529.623a50.35372,50.35372,0,0,1-50.35391,50.327H339.33016v75.51726a50.35382,50.35382,0,0,1-100.70763,0V579.94988H163.10516a50.34045,50.34045,0,0,1,0-100.68089H238.6225V403.75176a50.35382,50.35382,0,1,1,100.70763-.04583v75.56324h75.49039a50.33062,50.33062,0,0,1,50.35391,50.3073v.04655Z"/>
    <circle class="a" cx="914.9719" cy="404.76683" r="59.92448"/>
    <circle class="a" cx="795.12289" cy="524.61582" r="59.92447"/>
    <circle class="a" cx="914.9719" cy="644.4648" r="59.92449"/>
    <circle class="a" cx="1034.82084" cy="524.61582" r="59.92447"/>
  </g>
</svg>
