<svg xmlns="http://www.w3.org/2000/svg" viewBox="0 0 1177.34155 992.9552">
  <defs>
    <style>
      .a {
        fill: #f5226f;
        stroke: #f5226f;
        stroke-miterlimit: 10;
      }
    </style>
  </defs>
  <title>Монтажная область 4</title>
  <g>
    <path class="a" d="M515.29363,684.84961a16.3333,16.3333,0,0,1-6,12.75,20.929,20.929,0,0,1-14.25,5.25q-5.25587,0-14.25-3.75l-314.25-145.5q-17.26172-9-17.25-27.75,0-18.73828,17.25-27l314.25-145.5a29.84779,29.84779,0,0,1,13.5-3q9,0,15,4.875a16.05844,16.05844,0,0,1,6,13.125q0,11.25-10.5,15.75l-309,141.75,309,142.5Q515.28777,672.84961,515.29363,684.84961Z"/>
    <path class="a" d="M551.28679,778.97461a18.94607,18.94607,0,0,1-12,4.125q-8.26171,0-15-6.375a21.24657,21.24657,0,0,1-6.75-16.125,41.60427,41.60427,0,0,1,1.5-8.25l179.25-557.25q2.98829-8.24413,8.25-12.375a18.92273,18.92273,0,0,1,12-4.125,20.158,20.158,0,0,1,14.625,6.375,20.98971,20.98971,0,0,1,6.375,15.375,41.19749,41.19749,0,0,1-1.5,9l-178.5,557.25Q556.53094,774.84374,551.28679,778.97461Z"/>
    <path class="a" d="M1093.53484,525.84961q0,18.75587-17.25,27.75l-314.25,145.5q-9,3.76172-14.25,3.75a20.88712,20.88712,0,0,1-14.25-5.25,16.29657,16.29657,0,0,1-6-12.75q0-11.98828,10.5-16.5l309-142.5-309-141.75q-10.51172-4.5-10.5-15.75a16.02516,16.02516,0,0,1,6-13.125q5.99413-4.86913,15-4.875a29.91829,29.91829,0,0,1,13.5,3l314.25,145.5Q1093.529,507.11133,1093.53484,525.84961Z"/>
  </g>
</svg>
