<svg xmlns="http://www.w3.org/2000/svg" viewBox="0 0 1177.34155 992.9552">
  <defs>
    <style>
      .a, .b, .c {
        fill: none;
        stroke: #f5226f;
        stroke-miterlimit: 10;
      }

      .a, .c {
        stroke-linecap: round;
        stroke-width: 21px;
      }

      .b {
        stroke-width: 18px;
      }

      .c {
        stroke-dasharray: 20 50;
        opacity: 0.68;
      }
    </style>
  </defs>
  <title>Монтажная область 8</title>
  <line class="a" x1="138.13165" y1="58.98438" x2="148.96842" y2="224.48873"/>
  <path class="a" d="M140.49668,79.12282a69.40821,69.40821,0,0,1,20.20344-7.46872c4.89526-.98077,15.29378-2.95407,27.12608.06606,12.3493,3.15207,13.92374,8.59464,23.43979,11.7668,7.63077,2.54371,19.38608,3.30009,36.96526-5.5132"/>
  <path class="a" d="M144.81905,134.33631a69.40839,69.40839,0,0,1,20.20344-7.46872c4.89526-.98076,15.29377-2.95407,27.12608.06606,12.3493,3.15208,13.92374,8.59466,23.43984,11.76681,7.63077,2.5437,19.38608,3.30008,36.96526-5.5132"/>
  <path class="a" d="M252.55371,133.18724a97.76573,97.76573,0,0,1-15.86317-15.16082c-2.43595-2.93989-3.97512-5.18247-4.31375-8.23592-.50723-4.5736,1.99347-8.13145,4.30782-11.67107a206.40546,206.40546,0,0,0,11.54674-20.14569"/>
  <path class="b" d="M572.374,226.20024c8.296-5.76753,31.81824-22.12054,56.29032-31.27239,38.66935-14.46121,69.856-7.257,131.34408,1.56361,96.25041,13.80734,144.37567,20.711,179.81633,15.63619,36.738-5.26058,59.09332-15.02444,117.27157-18.76343,56.046-3.60194,74.63355,2.93145,82.87181,15.63619,8.09371,12.48191,6.8594,31.94059-1.56355,45.345-16.73308,26.62909-51.091,12.26391-79.74471,39.09052-21.44876,20.08116-24.86087,49.34929-26.58156,64.10841-6.10761,52.38921,24.29882,73.00493,10.9454,98.50808-13.55408,25.8864-59.60579,32.76851-92.25361,26.58151-39.15368-7.41981-40.22631-30.07316-93.81721-54.72668-22.58634-10.39047-58.8219-27.06-103.19895-23.45431-46.55891,3.78293-62.3616,26.65669-82.87186,15.63622-24.34834-13.0828-7.355-48.1537-32.836-84.43552C603.01088,285.768,530.14223,294.05654,528.59264,268.418,527.90932,257.11279,542.73089,246.80859,572.374,226.20024Z"/>
  <path class="b" d="M446.32025,317.82855c50.55288-16.23106,95.57065,6.413,104.18308,10.96666,8.75513,4.6291,38.391,20.796,56.661,54.83318,15.626,29.11139,10.71992,48.53327,14.62217,106.01088,5.60008,82.48592,18.02891,76.72959,14.62217,116.9775-3.46631,40.95193-22.78478,123.12472-76.76647,135.25522-26.00869,5.84452-58.92428-4.82642-76.76647-27.4166-28.70685-36.346,7.553-70.695-12.79443-140.73857-16.294-56.09005-58.27436-98.53315-63.97206-104.18307-33.1396-32.8616-54.61914-35.18159-56.661-56.661-3.69554-38.876,62.22164-78.04345,69.4554-82.24982C426.4087,326.25886,434.47357,321.63218,446.32025,317.82855Z"/>
  <path class="b" d="M851.43789,609.7686c19.47266-27.712,53.08806-30.1769,115.14976-34.72769,46.70989-3.42507,72.74158-5.33389,91.38864,12.79437,26.62624,25.88551,17.1817,72.19561,14.013,87.73316-1.48474,7.28027-14.16122,64.6228-68.23689,93.82569-27.27758,14.73091-75.12268,27.7201-98.69978,7.31109-6.95265-6.01842-5.82729-9.77537-21.93326-30.4629-16.05988-20.62832-23.72693-25.3037-30.4629-34.11844C833.29824,686.79157,830.75115,639.20834,851.43789,609.7686Z"/>
  <path class="b" d="M53.83152,170.97642c14.34168-12.64208,24.91707-8.12263,101.13235-10.93324,114.29043-4.21472,137.65165-16.11615,166.73171,5.46662,24.16183,17.93254,42.64248,51.83422,35.533,79.26589-8.21947,31.71442-43.04334,25.45686-76.53257,62.86605-48.72451,54.4278-21.94392,120.1033-65.59937,142.132-20.45024,10.31923-42.61858,4.128-57.39943,0C103.419,434.61478,77.35784,382.179,64.76475,356.84127,40.266,307.54906,10.79945,208.90883,53.83152,170.97642Z"/>
  <path class="b" d="M115.33092,492.14c33.03256-24.58916,73.37208-18.42354,104.549-14.34988,20.09547,2.62573,42.28546,5.52515,65.59935,20.49979,32.71153,21.01081,65.76894,64.59486,59.44943,106.599-6.23221,41.424-44.678,40.878-57.39945,88.14915-11.6657,43.34819,16.85883,57.94576,10.24992,106.59894-8.23267,60.60687-62.88768,114.4591-88.14915,106.599-13.47871-4.1939-3.17685-30.916-24.59976-79.94925-11.14278-25.50385-18.189-28.55393-30.7497-53.29949-19.0952-37.61909-13.20223-51.04246-26.64974-96.349C104.37954,598.30143,71.204,586.01426,79.87734,544.824,86.44288,513.644,110.7447,495.55388,115.33092,492.14Z"/>
  <path class="b" d="M372.63727,890.66058c.57419-27.918,66.43239-47.55641,83.19457-52.55476,77.38739-23.0763,101.26061,3.05522,210.38673-1.538,83.70465-3.52319,112.77225-20.71254,173.24045-1.55668,25.4993,8.078,68.47046,21.69091,69.669,42.44093,2.81182,48.67753-224.48787,132.72765-420.64761,79.83409C475.35613,953.74726,371.91345,925.85439,372.63727,890.66058Z"/>
  <path class="c" d="M799.28272,278.33892c-14.07055-.21485-183.53717-.1388-262.58825,129.17648C517.57725,438.78823,490.41279,483.225,504.92979,523.986c43.73806,122.80829,402.34744,33.97546,444.7059,144,26.73688,69.448-82.33582,192.64618-196.94122,239.29413-77.47266,31.53375-143.39588,22.35638-258.35291,6.3529C355.935,894.36507,263.78916,881.53719,214.81214,811.986c-40.30572-57.2373-20.75363-109.40521-23.29411-245.647a1379.76956,1379.76956,0,0,0-42.353-313.41181"/>
</svg>
