<svg xmlns="http://www.w3.org/2000/svg" viewBox="0 0 1177.34155 992.9552">
  <defs>
    <style>
      .a, .b {
        fill: none;
        stroke-linecap: round;
        stroke-width: 23px;
      }

      .a, .b, .c {
        stroke: #f5226f;
        stroke-miterlimit: 10;
      }

      .b {
        stroke-dasharray: 32 70;
      }

      .c {
        fill: #f5226f;
        stroke-width: 10px;
      }
    </style>
  </defs>
  <title>Монтажная область 3</title>
  <g>
    <line class="a" x1="510.09768" y1="53.30245" x2="454.43043" y2="65.9401"/>
    <path class="a" d="M981.75187,172.39249v654.0499A119.08158,119.08158,0,0,1,862.66181,945.51777H610.114l221.74534-50.33072a119.09142,119.09142,0,0,0,89.76836-142.50348L776.85182,114.86333a118.50415,118.50415,0,0,0-35.81636-61.56089H862.66181A119.0941,119.0941,0,0,1,981.75187,172.39249Z"/>
    <path class="a" d="M831.85935,895.18705,610.114,945.51777,485.84863,973.72523a119.0983,119.0983,0,0,1-142.50339-89.76835L198.56936,246.13664a119.08766,119.08766,0,0,1,89.76835-142.4888L454.43053,65.94009l55.6672-12.63765L634.34843,25.095a119.09319,119.09319,0,0,1,142.50339,89.76835L921.62771,752.68357A119.09142,119.09142,0,0,1,831.85935,895.18705Z"/>
  </g>
  <line class="a" x1="304.96442" y1="306.7292" x2="694.84012" y2="216.37174"/>
  <line class="b" x1="328.66931" y1="379.02911" x2="718.54501" y2="288.67165"/>
  <line class="b" x1="411.63642" y1="688.37791" x2="801.51212" y2="598.02045"/>
  <g>
    <path class="c" d="M561.28655,532.57715a8.32835,8.32835,0,0,1,3.92578,5.5664q1.96583,8.53125-7.56641,10.72754L538.83245,553.209l6.71,29.09864q1.15722,5.02147-1.0918,8.44238a10.54784,10.54784,0,0,1-6.76367,4.46582,10.10124,10.10124,0,0,1-7.91113-1.082q-3.3999-2.11964-4.55274-7.14063l-6.71-29.09863-74.25195,17.1211a9.72845,9.72845,0,0,1-7.60254-.88868,8.72072,8.72072,0,0,1-3.9541-5.6914,15.018,15.018,0,0,1,.96582-8.41407l54.668-137.56689a11.23134,11.23134,0,0,1,7.99121-6.59814,10.66,10.66,0,0,1,7.91015,1.082q3.64746,2.06908,4.80372,7.08252l25.85546,112.13037,18.81446-4.33789A10.05713,10.05713,0,0,1,561.28655,532.57715ZM454.12444,554.77734l60.45508-13.94043L494.50823,453.791Z"/>
    <path class="c" d="M714.28655,537.32129a8.22862,8.22862,0,0,1,3.95508,5.69336q2.02441,8.78321-7.50879,10.97754l-98.333,22.67383a10.01127,10.01127,0,0,1-7.63184-1.01368,8.73064,8.73064,0,0,1-4.23535-5.75976,11.62266,11.62266,0,0,1,1.6045-9.08887l45.126-80.41553q9.30176-16.938,12.374-29.40478a50.62492,50.62492,0,0,0,.46777-23.75244q-3.3545-14.54443-13.55176-20.38867-10.1997-5.83374-25.499-2.31006a63.57648,63.57648,0,0,0-22.06641,9.71191,86.671,86.671,0,0,0-18.98047,18.51123q-3.06738,3.87817-6.3291,4.6294a6.02277,6.02277,0,0,1-5.374-1.53467,10.49244,10.49244,0,0,1-3.48145-5.93457,10.73741,10.73741,0,0,1,2.04688-9.45362,76.81577,76.81577,0,0,1,21.61425-20.83545,88.52288,88.52288,0,0,1,29.08106-12.51806q23.83008-5.49537,40.89551,3.7793,17.064,9.28125,21.9834,30.59619a67.53082,67.53082,0,0,1-.13086,30.94091q-3.66211,15.64308-15.47168,36.5918L627.2221,555.01953l79.51953-18.33594Q711.25774,535.64209,714.28655,537.32129Z"/>
  </g>
</svg>
