<svg xmlns="http://www.w3.org/2000/svg" viewBox="0 0 1177.34155 992.9552">
  <defs>
    <style>
      .a {
        fill: none;
        stroke: #f5226f;
        stroke-miterlimit: 10;
        stroke-width: 23px;
      }

      .b {
        isolation: isolate;
      }

      .c {
        fill: #f5226f;
      }
    </style>
  </defs>
  <title>Монтажная область 5</title>
  <g>
    <path class="a" d="M711.31538,475.17493c-.06388,182.20952-147.82576,329.86776-330.03528,329.8038a329.91955,329.91955,0,0,1-142.49666-32.41555c-61.00339,39.70106-167.77913,64.54061-176.46372,48.94-2.77168-4.98907,5.91292-11.509,25.78983-37.16694a482.62933,482.62933,0,0,0,52.45078-83.96874C16.10354,567.32716,23.06189,358.58451,156.10222,234.12773s341.783-117.49844,466.23976,15.5419A329.86425,329.86425,0,0,1,711.31554,475.175Z"/>
    <path class="a" d="M1139.01118,792.83659c-3.16735,17.62736-128.81314,27.73366-184.69081.51436-115.29573,97.2962-287.63551,82.70464-384.93167-32.591q-4.59533-5.44545-8.902-11.125C701.0408,660.065,752.78185,479.77394,681.11684,329.30019c141.07273-53.53424,298.83287,17.42973,352.367,158.50248a273.20838,273.20838,0,0,1-7.95494,212.67567c16.116,15.29442,37.69092,39.911,81.68568,68.93682C1130.8774,784.995,1139.90359,787.92909,1139.01118,792.83659Z"/>
    <g class="b">
      <path class="c" d="M353.55169,557.46289q-5.165-5.90186-5.16407-16.22949,0-27.04248,9.83594-45.73828,9.832-18.68482,28.52442-40.81983,14.75536-17.70557,21.63964-29.50879a51.74772,51.74772,0,0,0,6.88575-26.55761q0-16.22974-12.04981-25.81983-12.05712-9.59033-32.70508-9.59033a78.93392,78.93392,0,0,0-33.93457,7.623q-16.229,7.6311-37.86914,21.88574-12.29883,6.89281-20.16406,6.88525-8.36865,0-14.50879-7.623a27.69713,27.69713,0,0,1-6.14746-17.95118q0-14.25878,11.80371-23.11474,20.65576-17.70557,48.68848-27.78711a166.17392,166.17392,0,0,1,56.55859-10.082q29.99268,0,53.36035,10.32763,23.354,10.32789,36.39453,28.52491,13.0254,18.20069,13.03223,41.80371,0,25.57764-12.29492,44.50879-12.29883,18.93824-35.90235,42.541-20.17089,20.6565-30.24609,34.67334a69.8791,69.8791,0,0,0-12.541,31.72071q-1.4751,7.87206-6.63868,12.04882-5.165,4.18506-13.0332,4.18164A17.102,17.102,0,0,1,353.55169,557.46289Zm-11.55762,98.60742Q331.66546,645.5,331.66594,629.75879q0-15.73389,10.32813-26.31152,10.32714-10.57032,26.06543-10.57422,15.73389,0,26.06543,10.57422,10.32861,10.58057,10.32812,26.31152,0,15.7456-10.57324,26.31152a35.1234,35.1234,0,0,1-25.82031,10.57422Q352.3139,666.64453,341.99407,656.07031Z"/>
    </g>
  </g>
</svg>
