<svg xmlns="http://www.w3.org/2000/svg" viewBox="0 0 421.92722 279.87427"><defs><style>.a{fill:none;stroke:#f5226f;stroke-miterlimit:10;stroke-width:10px;}.b{font-size:186.31219px;fill:#f5226f;font-family:Nunito-SemiBold, Nunito;font-weight:600;}</style></defs><title>question</title><path class="a" d="M272.97087,137.09823a124.98389,124.98389,0,0,1-179.00994,112.66c-23.11,15.04-63.56,24.45-66.85,18.54-1.05-1.89,2.24-4.36,9.77-14.08a182.835,182.835,0,0,0,19.87-31.81,124.963,124.963,0,1,1,216.22-85.31Z" transform="translate(-18.09087 -7.15823)"/><path class="a" d="M434.99544,257.43844c-1.19988,6.67781-48.79846,10.50638-69.96667.19487a103.48221,103.48221,0,0,1-149.19655-16.561,125.05729,125.05729,0,0,0,45.69846-159.236A103.49989,103.49989,0,0,1,392.00481,222.45024c6.10527,5.794,14.27849,15.11956,30.9451,26.11543C431.91411,254.4678,435.33352,255.57933,434.99544,257.43844Z" transform="translate(-18.09087 -7.15823)"/><text class="b" transform="translate(84.11413 201.3557)">?</text></svg>