<svg xmlns="http://www.w3.org/2000/svg" viewBox="0 0 1177.34155 992.9552">
  <defs>
    <style>
      .a {
        fill: none;
        stroke-linecap: round;
        stroke-width: 23px;
      }

      .a, .b {
        stroke: #f5226f;
        stroke-miterlimit: 10;
      }

      .b {
        fill: #f5226f;
        stroke-width: 10px;
      }
    </style>
  </defs>
  <title>Монтажная область 12</title>
  <rect class="a" x="214.59301" y="680.02057" width="249.44311" height="220.11086" rx="21.05915"/>
  <rect class="a" x="464.54152" y="473.98367" width="249.44311" height="426.14777" rx="21.05915"/>
  <rect class="a" x="713.30543" y="252.92714" width="249.44311" height="647.20429" rx="21.05915"/>
  <g>
    <path class="b" d="M316.39344,589.54354a6.015,6.015,0,0,1,1.957,4.53222,6.50826,6.50826,0,0,1-1.85449,4.63477,6.23535,6.23535,0,0,1-4.73828,1.957H274.47156v37.08008a6.41238,6.41238,0,0,1-1.85351,4.73828,6.17125,6.17125,0,0,1-4.53223,1.85351,5.99311,5.99311,0,0,1-4.53222-1.957,6.51142,6.51142,0,0,1-1.85352-4.63476V600.66756H224.414a6.68385,6.68385,0,0,1-6.5918-6.5918,6.00105,6.00105,0,0,1,1.957-4.53222A6.51143,6.51143,0,0,1,224.414,587.69h37.28613V550.60994a6.77534,6.77534,0,0,1,1.85352-4.84082,6.22653,6.22653,0,0,1,9.06445,0,6.77122,6.77122,0,0,1,1.85351,4.84082V587.69H311.7577A6.52522,6.52522,0,0,1,316.39344,589.54354Z"/>
    <path class="b" d="M412.69617,640.42537a6.58565,6.58565,0,0,1,2.05957,5.15039,7.02951,7.02951,0,0,1-1.957,5.35645q-1.96,1.853-5.87109,1.85351H338.74207q-3.91553,0-5.87109-1.85351a7.01862,7.01862,0,0,1-1.957-5.35645,6.57313,6.57313,0,0,1,2.06054-5.15039,8.31829,8.31829,0,0,1,5.76758-1.85351H364.286v-110.416l-22.4541,14.626a6.16812,6.16812,0,0,1-3.2959,1.03027,6.35251,6.35251,0,0,1-5.04688-2.67871,9.00131,9.00131,0,0,1-2.16308-5.76758q0-4.32569,3.2959-6.17969l31.3125-20.39453a13.11064,13.11064,0,0,1,7.21-2.26562,7.82145,7.82145,0,0,1,5.76757,2.26562,8.64355,8.64355,0,0,1,2.26563,6.38575V638.57186h25.75A8.32592,8.32592,0,0,1,412.69617,640.42537Z"/>
  </g>
  <g>
    <path class="b" d="M561.452,378.83748a6.01494,6.01494,0,0,1,1.957,4.53223,6.50825,6.50825,0,0,1-1.85449,4.63476,6.23534,6.23534,0,0,1-4.73828,1.957H519.53016v37.08008a6.41236,6.41236,0,0,1-1.85352,4.73828,6.17122,6.17122,0,0,1-4.53222,1.85352,5.99313,5.99313,0,0,1-4.53223-1.957,6.51147,6.51147,0,0,1-1.85352-4.63477V389.9615H469.47254a6.68387,6.68387,0,0,1-6.5918-6.59179,6.00108,6.00108,0,0,1,1.957-4.53223,6.51146,6.51146,0,0,1,4.63476-1.85351h37.28613V339.90389a6.77536,6.77536,0,0,1,1.85352-4.84082,6.22653,6.22653,0,0,1,9.06445,0,6.77121,6.77121,0,0,1,1.85352,4.84082V376.984h37.28613A6.52524,6.52524,0,0,1,561.452,378.83748Z"/>
    <path class="b" d="M651.88367,380.27986q6.89941,9.0674,6.90137,22.45411,0,18.95506-12.77246,29.87011-12.7749,10.92042-34.81348,10.918a73.31427,73.31427,0,0,1-25.64746-4.53222,61.21958,61.21958,0,0,1-20.70312-12.36036,9.38454,9.38454,0,0,1-3.2959-7.0039,7.96711,7.96711,0,0,1,1.64844-5.14942,4.88761,4.88761,0,0,1,3.91406-2.06054,9.34766,9.34766,0,0,1,5.76758,2.26562,70.41475,70.41475,0,0,0,18.54,11.124,53.78345,53.78345,0,0,0,19.57031,3.502q15.24169,0,23.1748-7.00391,7.92774-7.00048,7.93067-20.1875,0-26.57373-33.37207-26.57422h-10.918a6.731,6.731,0,0,1-5.25293-2.16308,7.2725,7.2725,0,0,1-1.957-5.04688,6.87242,6.87242,0,0,1,7.21-7.0039h7.62207q16.06786,0,24.71973-7.10743,8.65283-7.106,8.65234-20.49707,0-11.74071-7.00391-18.02441-7.00635-6.28125-19.77636-6.2832a50.31468,50.31468,0,0,0-18.7461,3.60547,69.34847,69.34847,0,0,0-18.12793,11.0205,9.32253,9.32253,0,0,1-5.76758,2.26563,4.88249,4.88249,0,0,1-3.91406-2.05957,7.968,7.968,0,0,1-1.64844-5.15039,9.39,9.39,0,0,1,3.29688-7.00391A61.72247,61.72247,0,0,1,587.61121,299.734a70.00016,70.00016,0,0,1,24.82325-4.53223q19.77686,0,31.51855,10.09375,11.7422,10.09571,11.53516,27.19238a38.83037,38.83037,0,0,1-6.48828,21.62988,35.2482,35.2482,0,0,1-17.20118,13.38965Q644.97938,371.21639,651.88367,380.27986Z"/>
  </g>
  <g>
    <path class="b" d="M822.39344,159.07283a6.015,6.015,0,0,1,1.957,4.53223,6.50829,6.50829,0,0,1-1.85449,4.63477,6.23535,6.23535,0,0,1-4.73828,1.957H780.47156v37.08007a6.41239,6.41239,0,0,1-1.85351,4.73829,6.17125,6.17125,0,0,1-4.53223,1.85351,5.99311,5.99311,0,0,1-4.53222-1.957,6.51143,6.51143,0,0,1-1.85352-4.63477V170.19686H730.414a6.68385,6.68385,0,0,1-6.5918-6.5918,6.00109,6.00109,0,0,1,1.957-4.53223,6.51146,6.51146,0,0,1,4.63477-1.85351h37.28613V120.13924a6.77532,6.77532,0,0,1,1.85352-4.84082,6.22653,6.22653,0,0,1,9.06445,0,6.7712,6.7712,0,0,1,1.85351,4.84082v37.08008H817.7577A6.52526,6.52526,0,0,1,822.39344,159.07283Z"/>
    <path class="b" d="M920.85926,79.04158a6.84006,6.84006,0,0,1,1.957,5.04785,13.84306,13.84306,0,0,1-1.85449,6.38575l-68.3916,128.75a7.81616,7.81616,0,0,1-7.21,4.53222,8.64,8.64,0,0,1-5.8711-2.2666,7.1176,7.1176,0,0,1-2.57519-5.56152,8.38094,8.38094,0,0,1,1.44238-4.53223L902.62781,91.2994H831.55848a7.92491,7.92491,0,0,1-5.665-1.8545,6.74006,6.74006,0,0,1-1.957-5.14941,7.01935,7.01935,0,0,1,1.957-5.35645,7.925,7.925,0,0,1,5.665-1.85449h83.63574A7.68263,7.68263,0,0,1,920.85926,79.04158Z"/>
  </g>
</svg>
