<svg id="Слой_1" data-name="Слой 1" xmlns="http://www.w3.org/2000/svg" viewBox="0 0 1116.58008 827.17591"><defs><style>.cls-1,.cls-2,.cls-3{fill:none;stroke:#f5226f;stroke-width:26px;}.cls-1{stroke-linejoin:round;}.cls-2,.cls-3{stroke-linecap:round;stroke-miterlimit:10;}.cls-3{stroke-dasharray:136.94118 136.94118;}</style></defs><title>share</title><path class="cls-1" d="M1319.82007,639.661V1090.833c0,54.75318-46.45007,99.131-103.76,99.131H882.53q-88.94146,75.87089-177.883,151.74188-.52853-75.87089-1.057-151.74188H333c-57.31,0-103.76-44.3778-103.76-99.131V639.661c0-54.74367,46.45-99.131,103.76-99.131h883.06006C1273.37,540.53,1319.82007,584.91728,1319.82007,639.661Z" transform="translate(-216.23999 -527.52997)"/><line class="cls-2" x1="150.64236" y1="170.46975" x2="955.34825" y2="170.46975"/><line class="cls-2" x1="150.64236" y1="465.85297" x2="210.64236" y2="465.85297"/><line class="cls-3" x1="347.58356" y1="465.85297" x2="826.87769" y2="465.85297"/><line class="cls-2" x1="895.34827" y1="465.85297" x2="955.34827" y2="465.85297"/><line class="cls-2" x1="150.64236" y1="323.50029" x2="955.34825" y2="323.50029"/></svg>