<svg xmlns="http://www.w3.org/2000/svg" viewBox="0 0 1177.34155 992.9552">
  <defs>
    <style>
      .a, .b {
        fill: none;
        stroke: #f5226f;
        stroke-width: 25px;
      }

      .a {
        stroke-linejoin: round;
      }

      .b {
        stroke-linecap: round;
        stroke-miterlimit: 10;
      }
    </style>
  </defs>
  <title>Монтажная область 7</title>
  <path class="a" d="M942.80415,498.9777V749.4552c-2.5781,23.31043-14.18448,101.96166-78.4692,156.9499-33.92048,29.015-70.54682,41.21087-82.8331,45.1782-35.20076,11.36672-62.56854,11.6034-95.51963,11.88837-49.51355.4282-95.81188.82861-143.85983-24.57071-20.78544-10.98766-34.91565-23.11245-57.863-42.80289a529.51367,529.51367,0,0,1-64.9805-66.51158q-99.23244-90.288-198.46432-180.576a79.06157,79.06157,0,0,1,106.40774-116.9629l94.97627,86.40835a65.26155,65.26155,0,0,1-1.34772-13.26163V221.56147a65.786,65.786,0,1,1,131.57191,0V404.0577a65.8013,65.8013,0,0,1,127.22664,23.58122v39.6389a65.786,65.786,0,1,1,131.57191,0V498.9777a65.79144,65.79144,0,0,1,131.58287,0Z"/>
  <line class="b" x1="622.9724" y1="115.8366" x2="886.92356" y2="115.85237"/>
  <line class="b" x1="798.1472" y1="26.16892" x2="886.92356" y2="115.85237"/>
  <line class="b" x1="799.33616" y1="204.91063" x2="886.92356" y2="115.85237"/>
  <line class="b" x1="552.42273" y1="376.47059" x2="552.42273" y2="533.41442"/>
</svg>
