<svg width="197" height="316" xmlns="http://www.w3.org/2000/svg">
 <!-- Created with SVG Editor - http://github.com/mzalive/SVG Editor/ -->

 <g>
  <title>background</title>
  <g display="none" overflow="visible" y="0" x="0" height="100%" width="130%" id="canvasGrid">
   <rect fill="url(#gridpattern)" stroke-width="0" y="0" x="0" height="100%" width="100%"/>
  </g>
 </g>
 <g>
  <title>Layer 1</title>
  <g stroke="null" id="svg_35">
   <g stroke="null" transform="matrix(0.42847721052096743,0,0,0.42847721052096743,-1279.3201983204128,-851.9343345779901) " id="svg_5">
    <g stroke="null" id="svg_6">
     <path fill="#f5226f" stroke="null" id="svg_7" d="m3407.478612,2037.66529l-128,0c-5.888,0 -10.667,4.779 -10.667,10.667s4.779,10.667 10.667,10.667l128,0c5.888,0 10.667,-4.779 10.667,-10.667s-4.779,-10.667 -10.667,-10.667z"/>
    </g>
   </g>
   <g stroke="null" transform="matrix(0.42847721052096743,0,0,0.42847721052096743,-1279.3201983204128,-851.9343345779901) " id="svg_8">
    <g stroke="null" id="svg_9">
     <path fill="#f5226f" stroke="null" id="svg_10" d="m3415.030612,2040.80129l-42.667,-42.667c-4.16,-4.16 -10.923,-4.16 -15.083,0c-4.16,4.16 -4.16,10.923 0,15.083l35.115,35.115l-35.136,35.136c-4.16,4.16 -4.16,10.923 0,15.083c2.091,2.069 4.821,3.115 7.552,3.115c2.731,0 5.461,-1.045 7.552,-3.115l42.667,-42.667c4.16,-4.161 4.16,-10.923 0,-15.083z"/>
    </g>
   </g>
   <g stroke="null" transform="matrix(0.42847721052096743,0,0,0.42847721052096743,-1279.3201983204128,-851.9343345779901) " id="svg_11">
    <g stroke="null" id="svg_12">
     <path fill="#f5226f" stroke="null" id="svg_13" d="m3130.145612,2037.66529l-128,0c-5.888,0 -10.667,4.779 -10.667,10.667s4.779,10.667 10.667,10.667l128,0c5.888,0 10.667,-4.779 10.667,-10.667s-4.779,-10.667 -10.667,-10.667z"/>
    </g>
   </g>
   <g stroke="null" transform="matrix(0.42847721052096743,0,0,0.42847721052096743,-1279.3201983204128,-851.9343345779901) " id="svg_14">
    <g stroke="null" id="svg_15">
     <path fill="#f5226f" stroke="null" id="svg_16" d="m3017.227612,2048.33129l35.115,-35.115c4.16,-4.16 4.16,-10.923 0,-15.083c-4.16,-4.16 -10.923,-4.16 -15.083,0l-42.666,42.668c-4.16,4.16 -4.16,10.923 0,15.083l42.667,42.667c2.091,2.069 4.821,3.115 7.552,3.115c2.731,0 5.461,-1.045 7.531,-3.136c4.16,-4.16 4.16,-10.923 0,-15.083l-35.116,-35.116z"/>
    </g>
   </g>
   <g stroke="null" transform="matrix(0.42847721052096743,0,0,0.42847721052096743,-1279.3201983204128,-851.9343345779901) " id="svg_17">
    <g stroke="null" id="svg_18">
     <path fill="#f5226f" stroke="null" id="svg_19" d="m3396.811612,2208.33129c-8.768,0 -16.939,2.667 -23.723,7.211c-5.845,-16.597 -21.696,-28.544 -40.277,-28.544c-8.768,0 -16.939,2.667 -23.723,7.211c-5.845,-16.597 -21.696,-28.544 -40.277,-28.544c-7.765,0 -15.061,2.091 -21.333,5.739l0,-69.739c0,-23.531 -19.136,-42.667 -42.667,-42.667c-23.531,0 -42.667,19.136 -42.667,42.667l0,181.333l-37.077,-27.797c-21.973,-16.491 -53.248,-14.293 -72.725,5.163c-12.48,12.48 -12.48,32.768 0,45.248l151.915,151.936c18.133,18.133 42.261,28.117 67.904,28.117l49.984,0c64.683,0 117.333,-52.629 117.333,-117.333l0,-117.334c0,-23.531 -19.136,-42.667 -42.667,-42.667zm21.334,160c0,52.928 -43.072,96 -96,96l-49.984,0c-19.968,0 -38.72,-7.765 -52.821,-21.867l-151.915,-151.935c-4.16,-4.16 -4.16,-10.923 0,-15.083c6.613,-6.592 15.445,-9.984 24.32,-9.984c7.211,0 14.464,2.24 20.544,6.805l54.123,40.597c3.243,2.432 7.595,2.795 11.179,1.003c3.605,-1.813 5.888,-5.504 5.888,-9.536l0,-202.666c0,-11.755 9.557,-21.333 21.333,-21.333s21.333,9.579 21.333,21.333l0,160c0,5.888 4.779,10.667 10.667,10.667s10.667,-4.779 10.667,-10.667l0,-53.333c0,-11.755 9.557,-21.333 21.333,-21.333s21.333,9.579 21.333,21.333l0,53.333c0,5.888 4.779,10.667 10.667,10.667c5.888,0 10.667,-4.779 10.667,-10.667l0,-32c0,-11.755 9.557,-21.333 21.333,-21.333s21.333,9.579 21.333,21.333l0,32c0,5.888 4.779,10.667 10.667,10.667c5.888,0 10.667,-4.779 10.667,-10.667l0,-10.667c0,-11.755 9.557,-21.333 21.333,-21.333s21.333,9.579 21.333,21.333l0,117.333z"/>
    </g>
   </g>
   <g stroke="null" transform="matrix(0.42847721052096743,0,0,0.42847721052096743,-1279.3201983204128,-851.9343345779901) " id="svg_20"/>
   <g stroke="null" transform="matrix(0.42847721052096743,0,0,0.42847721052096743,-1279.3201983204128,-851.9343345779901) " id="svg_21"/>
   <g stroke="null" transform="matrix(0.42847721052096743,0,0,0.42847721052096743,-1279.3201983204128,-851.9343345779901) " id="svg_22"/>
   <g stroke="null" transform="matrix(0.42847721052096743,0,0,0.42847721052096743,-1279.3201983204128,-851.9343345779901) " id="svg_23"/>
   <g stroke="null" transform="matrix(0.42847721052096743,0,0,0.42847721052096743,-1279.3201983204128,-851.9343345779901) " id="svg_24"/>
   <g stroke="null" transform="matrix(0.42847721052096743,0,0,0.42847721052096743,-1279.3201983204128,-851.9343345779901) " id="svg_25"/>
   <g stroke="null" transform="matrix(0.42847721052096743,0,0,0.42847721052096743,-1279.3201983204128,-851.9343345779901) " id="svg_26"/>
   <g stroke="null" transform="matrix(0.42847721052096743,0,0,0.42847721052096743,-1279.3201983204128,-851.9343345779901) " id="svg_27"/>
   <g stroke="null" transform="matrix(0.42847721052096743,0,0,0.42847721052096743,-1279.3201983204128,-851.9343345779901) " id="svg_28"/>
   <g stroke="null" transform="matrix(0.42847721052096743,0,0,0.42847721052096743,-1279.3201983204128,-851.9343345779901) " id="svg_29"/>
   <g stroke="null" transform="matrix(0.42847721052096743,0,0,0.42847721052096743,-1279.3201983204128,-851.9343345779901) " id="svg_30"/>
   <g stroke="null" transform="matrix(0.42847721052096743,0,0,0.42847721052096743,-1279.3201983204128,-851.9343345779901) " id="svg_31"/>
   <g stroke="null" transform="matrix(0.42847721052096743,0,0,0.42847721052096743,-1279.3201983204128,-851.9343345779901) " id="svg_32"/>
   <g stroke="null" transform="matrix(0.42847721052096743,0,0,0.42847721052096743,-1279.3201983204128,-851.9343345779901) " id="svg_33"/>
   <g stroke="null" transform="matrix(0.42847721052096743,0,0,0.42847721052096743,-1279.3201983204128,-851.9343345779901) " id="svg_34"/>
  </g>
 </g>
</svg>